<svg xmlns="http://www.w3.org/2000/svg" viewBox="0 0 64 64" width="64" height="64">
  <!-- Book Cover -->
  <rect x="14" y="8" width="36" height="48" rx="2" ry="2" fill="#3B82F6" stroke="#1E40AF" stroke-width="1"/>
  
  <!-- Book Pages -->
  <rect x="16" y="10" width="32" height="44" rx="1" ry="1" fill="#FFFFFF"/>
  <rect x="18" y="12" width="28" height="40" rx="1" ry="1" fill="#F8FAFC"/>
  
  <!-- Book Spine -->
  <rect x="12" y="8" width="4" height="48" rx="2" ry="2" fill="#1E40AF"/>
  
  <!-- Text Lines on Pages -->
  <line x1="20" y1="18" x2="44" y2="18" stroke="#6B7280" stroke-width="1"/>
  <line x1="20" y1="22" x2="42" y2="22" stroke="#6B7280" stroke-width="1"/>
  <line x1="20" y1="26" x2="44" y2="26" stroke="#6B7280" stroke-width="1"/>
  <line x1="20" y1="30" x2="40" y2="30" stroke="#6B7280" stroke-width="1"/>
  
  <!-- Book Title Area -->
  <rect x="18" y="38" width="28" height="12" rx="1" ry="1" fill="#EFF6FF"/>
  
  <!-- Book Icon/Symbol -->
  <circle cx="32" cy="44" r="3" fill="#3B82F6"/>
  <path d="M30 44 L32 46 L34 42" stroke="#FFFFFF" stroke-width="1.5" fill="none" stroke-linecap="round" stroke-linejoin="round"/>
  
  <!-- Shadow -->
  <ellipse cx="32" cy="58" rx="20" ry="2" fill="#00000010"/>
</svg>
